<svg xmlns="http://www.w3.org/2000/svg" viewBox="0 0 714 526" width="714" height="526" role="img" aria-label="Software Dev Skill Radar" font-family="ui-sans-serif,-apple-system,Segoe UI,Helvetica,Arial,sans-serif"><text x="357.0" y="25" text-anchor="middle" font-size="15" font-weight="700" fill="#F8FAFC">Software Dev Skill Radar</text><g transform="translate(357.1,289.0)"><polygon points="0.0,-212.0 165.7,-132.2 206.7,47.2 92.0,191.0 -92.0,191.0 -206.7,47.2 -165.7,-132.2" fill="none" stroke="#334155" stroke-width="1" opacity="0.85"/><polygon points="0.0,-159.0 124.3,-99.1 155.0,35.4 69.0,143.3 -69.0,143.3 -155.0,35.4 -124.3,-99.1" fill="none" stroke="#334155" stroke-width="1" opacity="0.72"/><polygon points="0.0,-106.0 82.9,-66.1 103.3,23.6 46.0,95.5 -46.0,95.5 -103.3,23.6 -82.9,-66.1" fill="none" stroke="#334155" stroke-width="1" opacity="0.60"/><polygon points="0.0,-53.0 41.4,-33.0 51.7,11.8 23.0,47.8 -23.0,47.8 -51.7,11.8 -41.4,-33.0" fill="none" stroke="#334155" stroke-width="1" opacity="0.47"/><line x1="0" y1="0" x2="0.0" y2="-212.0" stroke="#1E293B" stroke-width="1"/><line x1="0" y1="0" x2="165.7" y2="-132.2" stroke="#1E293B" stroke-width="1"/><line x1="0" y1="0" x2="206.7" y2="47.2" stroke="#1E293B" stroke-width="1"/><line x1="0" y1="0" x2="92.0" y2="191.0" stroke="#1E293B" stroke-width="1"/><line x1="0" y1="0" x2="-92.0" y2="191.0" stroke="#1E293B" stroke-width="1"/><line x1="0" y1="0" x2="-206.7" y2="47.2" stroke="#1E293B" stroke-width="1"/><line x1="0" y1="0" x2="-165.7" y2="-132.2" stroke="#1E293B" stroke-width="1"/><g><animateTransform attributeName="transform" type="scale" values="0.04;1" dur="1.1s" calcMode="spline" keyTimes="0;1" keySplines="0.22 1 0.36 1" fill="freeze"/><polygon points="0.0,-165.4 124.3,-99.1 169.5,38.7 64.4,133.7 -57.0,118.4 -134.3,30.7 -140.9,-112.4" fill="#38BDF8" fill-opacity="0.22" stroke="#38BDF8" stroke-width="2.5" stroke-linejoin="round"/><circle cx="0.0" cy="-165.4" r="3.6" fill="#818CF8" stroke="#38BDF8" stroke-width="1.2"/><circle cx="124.3" cy="-99.1" r="3.6" fill="#818CF8" stroke="#38BDF8" stroke-width="1.2"/><circle cx="169.5" cy="38.7" r="3.6" fill="#818CF8" stroke="#38BDF8" stroke-width="1.2"/><circle cx="64.4" cy="133.7" r="3.6" fill="#818CF8" stroke="#38BDF8" stroke-width="1.2"/><circle cx="-57.0" cy="118.4" r="3.6" fill="#818CF8" stroke="#38BDF8" stroke-width="1.2"/><circle cx="-134.3" cy="30.7" r="3.6" fill="#818CF8" stroke="#38BDF8" stroke-width="1.2"/><circle cx="-140.9" cy="-112.4" r="3.6" fill="#818CF8" stroke="#38BDF8" stroke-width="1.2"/></g><text x="0.0" y="-237.0" text-anchor="middle" font-size="13" font-weight="600" fill="#E2E8F0">Java</text><text x="181.4" y="-149.6" text-anchor="start" font-size="13" font-weight="600" fill="#E2E8F0">Spring Boot</text><text x="226.2" y="55.6" text-anchor="start" font-size="13" font-weight="600" fill="#E2E8F0">SQL / Databases</text><text x="100.7" y="223.0" text-anchor="start" font-size="13" font-weight="600" fill="#E2E8F0">Angular</text><text x="-100.7" y="223.0" text-anchor="end" font-size="13" font-weight="600" fill="#E2E8F0">AWS</text><text x="-226.2" y="55.6" text-anchor="end" font-size="13" font-weight="600" fill="#E2E8F0">Docker / DevOps</text><text x="-181.4" y="-149.6" text-anchor="end" font-size="13" font-weight="600" fill="#E2E8F0">Git / GitHub</text></g></svg>